# Blender 3.1.0
# www.blender.org
v -2.789354 -5.000000 2.789354
v -1.689537 -3.474919 2.000000
v -2.000000 -3.474919 1.689537
v -1.689537 4.689537 2.000000
v -1.179428 5.000000 1.179428
v -2.000000 4.689537 1.689537
v -2.789354 -5.000000 -2.789354
v -2.000000 -3.474919 -1.689537
v -1.689537 -3.474919 -2.000000
v -1.179428 5.000000 -1.179428
v -1.689537 4.689537 -2.000000
v -2.000000 4.689537 -1.689537
v 2.789354 -5.000000 2.789354
v 2.000000 -3.474919 1.689537
v 1.689537 -3.474919 2.000000
v 1.179428 5.000000 1.179428
v 1.689537 4.689537 2.000000
v 2.000000 4.689537 1.689537
v 2.789354 -5.000000 -2.789354
v 1.689537 -3.474919 -2.000000
v 2.000000 -3.474919 -1.689537
v 1.179428 5.000000 -1.179428
v 2.000000 4.689537 -1.689537
v 1.689537 4.689537 -2.000000
v -1.689537 5.000000 1.689537
v -1.689537 5.000000 -1.689537
v 1.689537 5.000000 -1.689537
v 1.689537 5.000000 1.689537
v -0.136822 6.745156 0.136822
v -0.136822 6.745156 -0.136822
v 0.136822 6.745156 -0.136822
v 0.136822 6.745156 0.136822
v -1.179428 5.699874 1.179428
v -1.179428 5.699874 -1.179428
v 1.179428 5.699874 -1.179428
v 1.179428 5.699874 1.179428
vn -0.0000 -0.0000 2.0000
vn 2.0000 -0.0000 -0.0000
vn -2.0000 -0.0000 -0.0000
vn -0.0000 -0.0000 -2.0000
vn -1.0638 1.3178 1.0638
vn -1.1547 1.1547 1.1547
vn -1.0638 1.3178 -1.0638
vn -1.1547 1.1547 -1.1547
vn 1.0638 1.3178 1.0638
vn 1.1547 1.1547 1.1547
vn 1.0638 1.3178 -1.0638
vn 1.1547 1.1547 -1.1547
vn -1.7762 0.9193 -0.0000
vn -1.4142 -0.0000 1.4142
vn -1.4142 1.4142 -0.0000
vn -1.4142 -0.0000 -1.4142
vn -0.0000 0.9193 -1.7762
vn -0.0000 1.4142 -1.4142
vn 1.4142 -0.0000 -1.4142
vn 1.7762 0.9193 -0.0000
vn 1.4142 1.4142 -0.0000
vn 1.4142 -0.0000 1.4142
vn -0.0000 0.9193 1.7762
vn -0.0000 1.4142 1.4142
vn -0.0000 -2.0000 -0.0000
vn -0.0000 2.0000 -0.0000
vn -1.4160 1.4124 -0.0000
vn -0.0000 1.4124 -1.4160
vn 1.4160 1.4124 -0.0000
vn -0.0000 1.4124 1.4160
vt 0.904619 0.709167
vt 0.904619 0.709167
vt 0.904619 0.709167
vt 0.904619 0.709167
vt 0.904619 0.709167
vt 0.904619 0.709167
vt 0.904619 0.709167
vt 0.904619 0.709167
vt 0.904619 0.709167
vt 0.904620 0.709167
vt 0.904619 0.709167
vt 0.904619 0.709167
vt 0.904619 0.709167
vt 0.904619 0.709167
vt 0.904619 0.709167
vt 0.904619 0.709167
vt 0.904619 0.709167
vt 0.904619 0.709167
vt 0.904619 0.709167
vt 0.904619 0.709167
vt 0.904619 0.709167
vt 0.904619 0.709167
vt 0.904619 0.709167
vt 0.904619 0.709167
vt 0.904619 0.709167
vt 0.904619 0.709167
vt 0.904619 0.709167
vt 0.904619 0.709167
vt 0.904620 0.709167
vt 0.904620 0.709167
vt 0.904620 0.709167
vt 0.904619 0.709167
vt 0.904619 0.709167
vt 0.904620 0.709167
vt 0.904619 0.709167
vt 0.904619 0.709167
s 0
f 15/15/1 17/17/1 4/4/1 2/2/1
f 21/21/2 23/23/2 18/18/2 14/14/2
f 5/5/1 16/16/1 36/36/1 33/33/1
f 3/3/3 6/6/3 12/12/3 8/8/3
f 9/9/4 11/11/4 24/24/4 20/20/4
f 1/1/5 2/2/5 3/3/5
f 4/4/6 25/25/6 6/6/6
f 7/7/7 8/8/7 9/9/7
f 26/26/8 11/11/8 12/12/8
f 13/13/9 14/14/9 15/15/9
f 28/28/10 17/17/10 18/18/10
f 19/19/11 20/20/11 21/21/11
f 27/27/12 23/23/12 24/24/12
f 7/7/13 1/1/13 3/3/13 8/8/13
f 2/2/14 4/4/14 6/6/14 3/3/14
f 25/25/15 26/26/15 12/12/15 6/6/15
f 11/11/16 9/9/16 8/8/16 12/12/16
f 19/19/17 7/7/17 9/9/17 20/20/17
f 26/26/18 27/27/18 24/24/18 11/11/18
f 23/23/19 21/21/19 20/20/19 24/24/19
f 13/13/20 19/19/20 21/21/20 14/14/20
f 27/27/21 28/28/21 18/18/21 23/23/21
f 17/17/22 15/15/22 14/14/22 18/18/22
f 1/1/23 13/13/23 15/15/23 2/2/23
f 28/28/24 25/25/24 4/4/24 17/17/24
f 7/7/25 19/19/25 13/13/25 1/1/25
f 5/5/26 10/10/26 26/26/26 25/25/26
f 10/10/26 22/22/26 27/27/26 26/26/26
f 22/22/26 16/16/26 28/28/26 27/27/26
f 16/16/26 5/5/26 25/25/26 28/28/26
f 31/31/26 30/30/26 29/29/26 32/32/26
f 22/22/4 10/10/4 34/34/4 35/35/4
f 16/16/2 22/22/2 35/35/2 36/36/2
f 10/10/3 5/5/3 33/33/3 34/34/3
f 29/29/27 30/30/27 34/34/27 33/33/27
f 30/30/28 31/31/28 35/35/28 34/34/28
f 31/31/29 32/32/29 36/36/29 35/35/29
f 32/32/30 29/29/30 33/33/30 36/36/30
