# Blender 3.1.0
# www.blender.org
v 0.004366 -1.221552 -0.393763
v 0.004366 -0.191863 -0.533278
v 0.293063 -1.221552 -0.274181
v 0.391714 -0.191863 -0.372833
v 0.412645 -1.221552 0.014516
v 0.552159 -0.191863 0.014515
v 0.293063 -1.221552 0.303213
v 0.391714 -0.191863 0.401864
v 0.004366 -1.221552 0.422795
v 0.004366 -0.191863 0.562309
v -0.284331 -1.221552 0.303213
v -0.382982 -0.191863 0.401864
v -0.403913 -1.221552 0.014516
v -0.543427 -0.191863 0.014515
v -0.284331 -1.221552 -0.274181
v -0.382983 -0.191863 -0.372833
v 0.004366 -0.854466 -0.722587
v 0.004366 -0.399960 -0.722588
v 0.525577 -0.399960 -0.506695
v 0.525577 -0.854465 -0.506695
v 0.741469 -0.399960 0.014516
v 0.741469 -0.854465 0.014516
v 0.525577 -0.399960 0.535726
v 0.525577 -0.854465 0.535726
v 0.004366 -0.399960 0.751618
v 0.004366 -0.854465 0.751619
v -0.516845 -0.399960 0.535726
v -0.516845 -0.854465 0.535726
v -0.732737 -0.399960 0.014515
v -0.732737 -0.854465 0.014516
v -0.516845 -0.399960 -0.506695
v -0.516845 -0.854465 -0.506695
v 0.477436 0.012135 -0.458555
v 0.004366 0.012135 -0.654507
v 0.673388 0.012135 0.014515
v 0.477436 0.012135 0.487585
v 0.004366 0.012135 0.683537
v -0.468704 0.012135 0.487585
v -0.664656 0.012135 0.014515
v -0.468704 0.012135 -0.458555
v 0.279336 0.190107 -0.260455
v 0.004366 0.190107 -0.374352
v 0.393233 0.190107 0.014515
v 0.279336 0.190107 0.289486
v 0.004366 0.190107 0.403383
v -0.270605 0.190107 0.289486
v -0.384502 0.190107 0.014515
v -0.270605 0.190107 -0.260455
v 0.477436 0.190107 -0.458555
v 0.004366 0.190107 -0.654507
v 0.673388 0.190107 0.014515
v 0.477436 0.190107 0.487585
v 0.004366 0.190107 0.683537
v -0.468704 0.190107 0.487585
v -0.664656 0.190107 0.014515
v -0.468704 0.190107 -0.458555
v 0.279336 -0.326794 -0.260455
v 0.004366 -0.326794 -0.374352
v 0.393233 -0.326794 0.014515
v 0.279336 -0.326793 0.289486
v 0.004366 -0.326793 0.403383
v -0.270605 -0.326793 0.289486
v -0.384502 -0.326794 0.014515
v -0.270605 -0.326794 -0.260455
v -0.077260 0.272189 1.892917
v 0.073902 0.272189 1.892917
v -0.160000 0.141308 0.178152
v 0.156642 0.141308 0.178152
v -0.270347 0.461537 0.500651
v -0.295143 0.645727 0.951627
v -0.222629 0.565926 1.516090
v 0.219271 0.565926 1.516090
v 0.242194 0.645727 0.951627
v 0.266989 0.461537 0.500651
v -1.877967 0.272189 -0.091983
v -1.877967 0.272189 0.059179
v -0.163201 0.141308 -0.174723
v -0.163201 0.141308 0.141919
v -0.485700 0.461537 -0.285070
v -0.936676 0.645727 -0.309865
v -1.501139 0.565925 -0.237352
v -1.501139 0.565926 0.204548
v -0.936676 0.645727 0.227471
v -0.485700 0.461537 0.252266
v 0.065649 0.272188 -1.931811
v -0.085513 0.272188 -1.931811
v 0.148389 0.141308 -0.217046
v -0.168252 0.141308 -0.217046
v 0.258736 0.461536 -0.539545
v 0.283532 0.645727 -0.990521
v 0.211018 0.565925 -1.554984
v -0.230882 0.565925 -1.554984
v -0.253804 0.645727 -0.990521
v -0.278600 0.461536 -0.539545
v 1.866356 0.272189 0.053088
v 1.866356 0.272189 -0.098074
v 0.151590 0.141308 0.135829
v 0.151590 0.141308 -0.180813
v 0.474090 0.461537 0.246176
v 0.925065 0.645727 0.270971
v 1.489529 0.565926 0.198457
v 1.489529 0.565925 -0.243443
v 0.925065 0.645727 -0.266365
v 0.474090 0.461537 -0.291161
v -1.408577 0.618572 1.282273
v -1.301690 0.618572 1.389160
v -0.146405 0.117535 -0.002100
v -0.019854 0.117535 0.124451
v -0.560630 0.807920 0.161258
v -0.897050 0.992110 0.462613
v -1.244912 0.912309 0.913024
v -0.932441 0.912309 1.225495
v -0.517096 0.992110 0.842568
v -0.180675 0.807920 0.541212
v -1.278333 0.618571 -1.394556
v -1.385221 0.618571 -1.287668
v -0.006653 0.117535 -0.144411
v -0.133203 0.117535 -0.017860
v -0.157319 0.807920 -0.546608
v -0.458674 0.992110 -0.883029
v -0.909084 0.912308 -1.230890
v -1.221555 0.912309 -0.918419
v -0.838628 0.992110 -0.503075
v -0.537273 0.807920 -0.166654
v 1.396966 0.618571 -1.321167
v 1.290079 0.618571 -1.428054
v 0.134795 0.117535 -0.036794
v 0.008244 0.117535 -0.163345
v 0.549019 0.807920 -0.200153
v 0.885440 0.992110 -0.501508
v 1.233301 0.912309 -0.951919
v 0.920830 0.912308 -1.264389
v 0.505486 0.992110 -0.881462
v 0.169065 0.807920 -0.580107
v 1.266722 0.618572 1.355661
v 1.373610 0.618572 1.248773
v -0.004958 0.117535 0.105517
v 0.121593 0.117535 -0.021034
v 0.145708 0.807920 0.507713
v 0.447063 0.992110 0.844134
v 0.897474 0.912309 1.191995
v 1.209944 0.912309 0.879525
v 0.827017 0.992110 0.464180
v 0.525662 0.807920 0.127759
vn 0.7783 1.7094 -1.8791
vn 1.8791 1.7094 -0.7783
vn 1.8791 1.7094 0.7783
vn 0.7783 1.7094 1.8791
vn -0.7783 1.7094 1.8791
vn -1.8791 1.7094 0.7783
vn 0.8912 -1.2786 2.1517
vn -1.8791 1.7094 -0.7783
vn -0.7783 1.7094 -1.8791
vn -0.0000 -2.6569 -0.0000
vn -0.7833 -1.6939 -1.8910
vn -1.0167 -0.0000 -2.4546
vn -1.8910 -1.6939 -0.7833
vn -2.4546 -0.0000 -1.0167
vn -1.8910 -1.6939 0.7833
vn -2.4546 -0.0000 1.0167
vn -0.7833 -1.6939 1.8910
vn -1.0167 -0.0000 2.4546
vn 0.7833 -1.6939 1.8910
vn 1.0167 -0.0000 2.4546
vn 1.8910 -1.6939 0.7833
vn 2.4546 -0.0000 1.0167
vn 1.8910 -1.6939 -0.7833
vn 2.4546 -0.0000 -1.0167
vn 0.7833 -1.6939 -1.8910
vn 1.0167 -0.0000 -2.4546
vn -2.1517 -1.2787 -0.8912
vn 2.1517 -1.2786 -0.8912
vn -0.8912 -1.2786 2.1517
vn -0.8912 -1.2786 -2.1517
vn 0.8912 -1.2786 -2.1517
vn 2.1517 -1.2786 0.8912
vn -2.1517 -1.2787 0.8912
vn -0.0000 2.6569 -0.0000
vn -0.0000 1.8853 -1.8720
vn -0.0000 2.0955 1.6334
vn -0.0000 2.6307 0.3719
vn -0.0000 2.4596 -1.0046
vn 1.8720 1.8853 -0.0000
vn -1.6334 2.0954 -0.0000
vn -0.3719 2.6307 -0.0000
vn 1.0046 2.4596 -0.0000
vn -0.0000 1.8853 1.8720
vn -0.0000 2.0954 -1.6334
vn -0.0000 2.6307 -0.3719
vn -0.0000 2.4596 1.0046
vn -1.8720 1.8853 -0.0000
vn 1.6334 2.0954 -0.0000
vn 0.3719 2.6307 -0.0000
vn -1.0046 2.4596 -0.0000
vn 1.6169 1.3527 -1.6169
vn -1.1550 2.0955 1.1550
vn -0.2630 2.6307 0.2630
vn 0.7103 2.4596 -0.7103
vn 1.6348 1.3091 1.6348
vn -1.1550 2.0954 -1.1550
vn -0.2630 2.6307 -0.2630
vn 0.7103 2.4596 0.7103
vn -1.6169 1.3527 1.6169
vn 1.1550 2.0954 -1.1550
vn 0.2630 2.6307 -0.2630
vn -0.7103 2.4596 0.7103
vn -1.6348 1.3091 -1.6348
vn 1.1550 2.0955 1.1550
vn 0.2630 2.6307 0.2630
vn -0.7103 2.4596 -0.7103
vt 0.907773 0.344882
vt 0.907773 0.344882
vt 0.907773 0.344882
vt 0.907773 0.344882
vt 0.907773 0.344882
vt 0.907773 0.344882
vt 0.907773 0.344882
vt 0.907773 0.344882
vt 0.907773 0.344882
vt 0.907773 0.344882
vt 0.907773 0.344882
vt 0.907773 0.344882
vt 0.907773 0.344882
vt 0.907773 0.344882
vt 0.907773 0.344882
vt 0.907773 0.344882
vt 0.907773 0.344882
vt 0.786679 0.028476
vt 0.907773 0.344882
vt 0.786679 0.028476
vt 0.907773 0.344882
vt 0.786679 0.028476
vt 0.907773 0.344882
vt 0.786679 0.028476
vt 0.907773 0.344882
vt 0.786679 0.028476
vt 0.907773 0.344882
vt 0.786679 0.028476
vt 0.907773 0.344882
vt 0.786679 0.028476
vt 0.907773 0.344882
vt 0.786679 0.028476
vt 0.907773 0.344882
vt 0.786679 0.028476
vt 0.907773 0.344882
vt 0.786679 0.028476
vt 0.907773 0.344882
vt 0.786679 0.028476
vt 0.907773 0.344882
vt 0.786679 0.028476
vt 0.907773 0.344882
vt 0.786679 0.028476
vt 0.907773 0.344882
vt 0.786679 0.028476
vt 0.907773 0.344882
vt 0.786679 0.028476
vt 0.907773 0.344882
vt 0.786679 0.028476
vt 0.907773 0.344882
vt 0.907773 0.344882
vt 0.907773 0.344882
vt 0.907773 0.344882
vt 0.907773 0.344882
vt 0.907773 0.344882
vt 0.907773 0.344882
vt 0.907773 0.344882
vt 0.907773 0.344882
vt 0.907773 0.344882
vt 0.907773 0.344882
vt 0.907773 0.344882
vt 0.907773 0.344882
vt 0.907773 0.344882
vt 0.907773 0.344882
vt 0.907773 0.344882
vt 0.907773 0.344882
vt 0.907773 0.344882
vt 0.907773 0.344882
vt 0.907773 0.344882
vt 0.907773 0.344882
vt 0.907773 0.344882
vt 0.907773 0.344882
vt 0.907773 0.344882
vt 0.907773 0.344882
vt 0.907773 0.344882
vt 0.907773 0.344882
vt 0.907773 0.344882
vt 0.907773 0.344882
vt 0.907773 0.344882
vt 0.907773 0.344882
vt 0.907773 0.344882
vt 0.290585 0.333163
vt 0.290585 0.333163
vt 0.347226 0.292148
vt 0.347226 0.292148
vt 0.347226 0.292148
vt 0.290585 0.333163
vt 0.347226 0.292148
vt 0.290585 0.333163
vt 0.290585 0.333163
vt 0.347226 0.292148
vt 0.290585 0.333163
vt 0.347226 0.292148
vt 0.347226 0.292148
vt 0.290585 0.333163
vt 0.347226 0.292148
vt 0.290585 0.333163
vt 0.347226 0.292148
vt 0.347226 0.292148
vt 0.347226 0.292148
vt 0.347226 0.292148
vt 0.347226 0.292148
vt 0.290585 0.333163
vt 0.347226 0.292148
vt 0.347226 0.292148
vt 0.290585 0.333163
vt 0.347226 0.292148
vt 0.290585 0.333163
vt 0.290585 0.333163
vt 0.347226 0.292148
vt 0.347226 0.292148
vt 0.351132 0.276523
vt 0.351132 0.276523
vt 0.351132 0.276523
vt 0.351132 0.276523
vt 0.351132 0.276523
vt 0.351132 0.276523
vt 0.351132 0.276523
vt 0.351132 0.276523
vt 0.351132 0.276523
vt 0.351132 0.276523
vt 0.409726 0.096835
vt 0.409726 0.096835
vt 0.351132 0.276523
vt 0.351132 0.276523
vt 0.351132 0.276523
vt 0.290585 0.333163
vt 0.290585 0.333163
vt 0.409726 0.096835
vt 0.290585 0.333163
vt 0.409726 0.096835
vt 0.290585 0.333163
vt 0.290585 0.333163
vt 0.351132 0.276523
vt 0.290585 0.333163
vt 0.290585 0.333163
vt 0.290585 0.333163
vt 0.347226 0.292148
vt 0.347226 0.292148
vt 0.347226 0.292148
vt 0.347226 0.292148
vt 0.290585 0.333163
vt 0.347226 0.292148
vt 0.290585 0.333163
vt 0.347226 0.292148
vt 0.347226 0.292148
vt 0.347226 0.292148
vt 0.347226 0.292148
vt 0.347226 0.292148
vt 0.347226 0.292148
vt 0.347226 0.292148
vt 0.347226 0.292148
vt 0.290585 0.333163
vt 0.347226 0.292148
vt 0.347226 0.292148
vt 0.290585 0.333163
vt 0.347226 0.292148
vt 0.290585 0.333163
vt 0.290585 0.333163
vt 0.347226 0.292148
vt 0.347226 0.292148
vt 0.347226 0.292148
vt 0.347226 0.292148
vt 0.290585 0.333163
vt 0.290585 0.333163
vt 0.290585 0.333163
vt 0.347226 0.292148
vt 0.290585 0.333163
vt 0.347226 0.292148
vt 0.347226 0.292148
vt 0.290585 0.333163
vt 0.347226 0.292148
vt 0.290585 0.333163
vt 0.290585 0.333163
vt 0.347226 0.292148
vt 0.290585 0.333163
vt 0.347226 0.292148
vt 0.290585 0.333163
vt 0.290585 0.333163
vt 0.347226 0.292148
vt 0.347226 0.292148
vt 0.347226 0.292148
vt 0.347226 0.292148
vt 0.290585 0.333163
vt 0.347226 0.292148
vt 0.290585 0.333163
vt 0.347226 0.292148
vt 0.347226 0.292148
vt 0.347226 0.292148
s 0
f 18/19/1 2/2/1 4/4/1 19/21/1
f 19/21/2 4/4/2 6/6/2 21/25/2
f 21/25/3 6/6/3 8/8/3 23/29/3
f 23/29/4 8/8/4 10/10/4 25/33/4
f 25/33/5 10/10/5 12/12/5 27/37/5
f 27/37/6 12/12/6 14/14/6 29/41/6
f 10/10/7 8/8/7 36/52/7 37/53/7
f 29/41/8 14/14/8 16/16/8 31/45/8
f 31/45/9 16/16/9 2/2/9 18/19/9
f 1/1/10 3/3/10 5/5/10 7/7/10 9/9/10 11/11/10 13/13/10 15/15/10
f 15/15/11 32/47/11 17/17/11 1/1/11
f 32/48/12 31/46/12 18/20/12 17/18/12
f 13/13/13 30/43/13 32/47/13 15/15/13
f 30/44/14 29/42/14 31/46/14 32/48/14
f 11/11/15 28/39/15 30/43/15 13/13/15
f 28/40/16 27/38/16 29/42/16 30/44/16
f 9/9/17 26/35/17 28/39/17 11/11/17
f 26/36/18 25/34/18 27/38/18 28/40/18
f 7/7/19 24/31/19 26/35/19 9/9/19
f 24/32/20 23/30/20 25/34/20 26/36/20
f 5/5/21 22/27/21 24/31/21 7/7/21
f 22/28/22 21/26/22 23/30/22 24/32/22
f 3/3/23 20/23/23 22/27/23 5/5/23
f 20/24/24 19/22/24 21/26/24 22/28/24
f 1/1/25 17/17/25 20/23/25 3/3/25
f 17/18/26 18/20/26 19/22/26 20/24/26
f 35/51/24 33/49/24 49/65/24 51/67/24
f 16/16/27 14/14/27 39/55/27 40/56/27
f 6/6/28 4/4/28 33/49/28 35/51/28
f 12/12/29 10/10/29 37/53/29 38/54/29
f 2/2/30 16/16/30 40/56/30 34/50/30
f 4/4/31 2/2/31 34/50/31 33/49/31
f 8/8/32 6/6/32 35/51/32 36/52/32
f 14/14/33 12/12/33 38/54/33 39/55/33
f 45/61/12 44/60/12 60/76/12 61/77/12
f 40/56/14 39/55/14 55/71/14 56/72/14
f 38/54/18 37/53/18 53/69/18 54/70/18
f 36/52/22 35/51/22 51/67/22 52/68/22
f 33/49/26 34/50/26 50/66/26 49/65/26
f 34/50/12 40/56/12 56/72/12 50/66/12
f 39/55/16 38/54/16 54/70/16 55/71/16
f 37/53/20 36/52/20 52/68/20 53/69/20
f 42/58/34 41/57/34 49/65/34 50/66/34
f 41/57/34 43/59/34 51/67/34 49/65/34
f 43/59/34 44/60/34 52/68/34 51/67/34
f 44/60/34 45/61/34 53/69/34 52/68/34
f 45/61/34 46/62/34 54/70/34 53/69/34
f 46/62/34 47/63/34 55/71/34 54/70/34
f 47/63/34 48/64/34 56/72/34 55/71/34
f 48/64/34 42/58/34 50/66/34 56/72/34
f 57/73/34 58/74/34 64/80/34 63/79/34 62/78/34 61/77/34 60/76/34 59/75/34
f 43/59/16 41/57/16 57/73/16 59/75/16
f 48/64/22 47/63/22 63/79/22 64/80/22
f 46/62/26 45/61/26 61/77/26 62/78/26
f 44/60/14 43/59/14 59/75/14 60/76/14
f 41/57/18 42/58/18 58/74/18 57/73/18
f 42/58/20 48/64/20 64/80/20 58/74/20
f 47/63/24 46/62/24 62/78/24 63/79/24
f 69/85/35 74/95/35 68/84/35 67/83/35
f 65/81/36 66/82/36 72/91/36 71/89/36
f 71/90/37 72/92/37 73/93/37 70/87/37
f 70/88/38 73/94/38 74/96/38 69/86/38
f 79/101/39 84/110/39 78/100/39 77/99/39
f 75/97/40 76/98/40 82/106/40 81/104/40
f 81/105/41 82/107/41 83/108/41 80/102/41
f 80/103/42 83/109/42 84/110/42 79/101/42
f 89/115/43 94/120/43 88/114/43 87/113/43
f 85/111/44 86/112/44 92/118/44 91/117/44
f 91/117/45 92/118/45 93/119/45 90/116/45
f 90/116/46 93/119/46 94/120/46 89/115/46
f 99/125/47 104/133/47 98/124/47 97/123/47
f 95/121/48 96/122/48 102/130/48 101/128/48
f 101/129/49 102/131/49 103/132/49 100/127/49
f 100/127/50 103/132/50 104/134/50 99/126/50
f 109/139/51 114/146/51 108/138/51 107/137/51
f 105/135/52 106/136/52 112/143/52 111/141/52
f 111/142/53 112/144/53 113/145/53 110/140/53
f 110/140/54 113/145/54 114/146/54 109/139/54
f 119/151/55 124/160/55 118/150/55 117/149/55
f 115/147/56 116/148/56 122/156/56 121/154/56
f 121/155/57 122/157/57 123/158/57 120/152/57
f 120/153/58 123/159/58 124/160/58 119/151/58
f 129/165/59 134/175/59 128/164/59 127/163/59
f 125/161/60 126/162/60 132/171/60 131/169/60
f 131/170/61 132/172/61 133/173/61 130/167/61
f 130/168/62 133/174/62 134/176/62 129/166/62
f 139/181/63 144/188/63 138/180/63 137/179/63
f 135/177/64 136/178/64 142/185/64 141/183/64
f 141/184/65 142/186/65 143/187/65 140/182/65
f 140/182/66 143/187/66 144/188/66 139/181/66
