# Blender 3.1.0
# www.blender.org
v 0.229845 0.261694 -2.000000
v 0.229844 -0.123008 -2.000000
v 0.229844 0.337055 -2.493279
v 0.229845 0.721757 -2.493279
v -0.229845 0.337055 -2.493279
v -0.368042 0.221402 -2.679562
v 0.368041 0.221401 -2.679562
v -0.229844 0.261694 -2.000000
v -0.229844 0.721757 -2.493279
v -0.229845 -0.123008 -2.000000
v -0.368042 0.221403 -3.375284
v 0.368041 0.221402 -3.375284
v -0.368040 0.837411 -2.679562
v 0.368042 0.837410 -2.679562
v -0.368040 0.837412 -3.375284
v 0.368042 0.837411 -3.375284
v -0.243443 1.132674 -3.257519
v 0.243445 1.132674 -3.257519
v -0.243443 1.132674 -2.797327
v -0.243443 2.187540 -2.797327
v -0.243443 2.187540 -3.257519
v 0.243445 1.132674 -2.797327
v 0.243445 2.187540 -2.797327
v 0.497108 2.387074 -2.557573
v -0.497106 2.387074 -2.557573
v 0.243445 2.187540 -3.257519
v 0.497108 2.387074 -3.497272
v 0.497108 2.539665 -3.497272
v 0.497108 2.539665 -2.557573
v -0.497106 2.387074 -3.497272
v -0.497106 2.539665 -3.497272
v -0.497106 2.539665 -2.557573
v -0.497106 2.911699 -2.557573
v -0.497106 2.911699 -3.497272
v 0.266783 2.911699 -2.787899
v 0.266783 2.911699 -3.266947
v 0.266783 2.658604 -3.266947
v 0.266783 2.658604 -2.787899
v 0.497108 2.911699 -2.557573
v 0.497108 2.911699 -3.497272
v -0.266780 2.911699 -2.787899
v -0.266780 2.911699 -3.266947
v -0.266780 2.658604 -3.266947
v -0.266780 2.658604 -2.787899
v 3.027423 3.796414 0.000002
v 3.027423 3.796414 0.000002
v 3.027423 3.796414 0.000002
v 3.027423 3.796414 0.000002
v -0.000001 3.796413 3.027424
v -0.000001 3.796413 3.027424
v -0.000001 3.796413 3.027424
v -0.000001 3.796413 3.027424
v -3.027423 3.796414 -0.000000
v -3.027423 3.796414 -0.000000
v -3.027423 3.796414 -0.000000
v -3.027423 3.796414 -0.000000
v 0.000001 3.796414 -3.027422
v 0.000001 3.796414 -3.027422
v 0.000001 3.796414 -3.027422
v 0.000001 3.796414 -3.027422
vn 1.0000 -0.0000 -0.0000
vn -0.0000 -0.8496 0.5275
vn -0.0000 0.7313 0.6821
vn -0.0000 -0.7313 -0.6821
vn -1.0000 -0.0000 -0.0000
vn -0.0000 -1.0000 -0.0000
vn -0.8031 -0.0000 0.5958
vn 0.8031 -0.0000 0.5958
vn -0.0000 0.8496 0.5275
vn -0.0000 -0.0000 -1.0000
vn -0.0000 0.3705 -0.9288
vn -0.9213 0.3888 -0.0000
vn -0.0000 0.3705 0.9288
vn 0.9213 0.3888 -0.0000
vn -0.0000 -0.7686 0.6397
vn -0.0000 -0.0000 1.0000
vn 0.6183 -0.7860 -0.0000
vn -0.0000 -0.7686 -0.6397
vn -0.6183 -0.7860 -0.0000
vn -0.0000 1.0000 -0.0000
vt 0.909540 0.463089
vt 0.909540 0.463089
vt 0.909540 0.463089
vt 0.902158 0.480314
vt 0.909540 0.463089
vt 0.902158 0.480314
vt 0.909541 0.463089
vt 0.902158 0.480314
vt 0.902158 0.480314
vt 0.902158 0.480314
vt 0.909540 0.463089
vt 0.909540 0.463089
vt 0.902158 0.480314
vt 0.909541 0.463089
vt 0.902158 0.480314
vt 0.902158 0.480314
vt 0.902158 0.480314
vt 0.902158 0.480314
vt 0.902158 0.480314
vt 0.902158 0.480314
vt 0.902158 0.480314
vt 0.902158 0.480314
vt 0.902158 0.480314
vt 0.902158 0.480314
vt 0.980903 0.714089
vt 0.902158 0.480314
vt 0.980903 0.714089
vt 0.902158 0.480314
vt 0.902158 0.480314
vt 0.980903 0.714089
vt 0.980903 0.714089
vt 0.980903 0.714089
vt 0.902158 0.480314
vt 0.980903 0.714089
vt 0.980903 0.714089
vt 0.980903 0.714089
vt 0.968599 0.468010
vt 0.980903 0.714089
vt 0.968599 0.468010
vt 0.980903 0.714089
vt 0.980903 0.714089
vt 0.968599 0.468010
vt 0.980903 0.714089
vt 0.968599 0.468010
vt 0.968599 0.468010
vt 0.968599 0.468010
vt 0.902158 0.480314
vt 0.968599 0.468010
vt 0.902158 0.480314
vt 0.968599 0.468010
vt 0.980903 0.714089
vt 0.902158 0.480314
vt 0.980903 0.714089
vt 0.902158 0.480314
vt 0.968599 0.468010
vt 0.968599 0.468010
vt 0.968599 0.468010
vt 0.968599 0.468010
vt 0.980903 0.714089
vt 0.968599 0.468010
vt 0.980903 0.714089
vt 0.968599 0.468010
vt 0.968599 0.468010
vt 0.968599 0.468010
vt 0.968599 0.468010
vt 0.968599 0.468010
vt 0.968599 0.468010
vt 0.968599 0.468010
vt 0.968599 0.468010
vt 0.968599 0.468010
vt 0.968599 0.468010
vt 0.968599 0.468010
vt 0.968599 0.468010
vt 0.968599 0.468010
vt 0.968599 0.468010
vt 0.968599 0.468010
vt 0.968599 0.468010
vt 0.968599 0.468010
vt 0.968599 0.468010
s 0
f 1/1/1 2/2/1 3/3/1 4/5/1
f 3/4/2 5/8/2 6/9/2 7/10/2
f 8/11/3 1/1/3 4/5/3 9/12/3
f 2/2/4 10/14/4 5/7/4 3/3/4
f 10/14/5 8/11/5 9/12/5 5/7/5
f 7/10/6 6/9/6 11/15/6 12/16/6
f 5/8/7 9/13/7 13/17/7 6/9/7
f 4/6/8 3/4/8 7/10/8 14/18/8
f 9/13/9 4/6/9 14/18/9 13/17/9
f 11/15/10 15/19/10 16/20/10 12/16/10
f 6/9/5 13/17/5 15/19/5 11/15/5
f 14/18/1 7/10/1 12/16/1 16/20/1
f 16/20/11 15/19/11 17/21/11 18/22/11
f 17/21/5 19/23/5 20/24/5 21/26/5
f 15/19/12 13/17/12 19/23/12 17/21/12
f 13/17/13 14/18/13 22/28/13 19/23/13
f 14/18/14 16/20/14 18/22/14 22/28/14
f 20/25/15 23/30/15 24/31/15 25/32/15
f 19/23/16 22/28/16 23/29/16 20/24/16
f 22/28/1 18/22/1 26/33/1 23/29/1
f 18/22/10 17/21/10 21/26/10 26/33/10
f 24/31/1 27/35/1 28/36/1 29/38/1
f 23/30/17 26/34/17 27/35/17 24/31/17
f 26/34/18 21/27/18 30/40/18 27/35/18
f 21/27/19 20/25/19 25/32/19 30/40/19
f 31/42/5 32/44/5 33/45/5 34/46/5
f 27/35/10 30/40/10 31/41/10 28/36/10
f 30/40/5 25/32/5 32/43/5 31/41/5
f 25/32/16 24/31/16 29/38/16 32/43/16
f 35/47/5 36/49/5 37/52/5 38/54/5
f 32/44/16 29/39/16 39/56/16 33/45/16
f 29/39/1 28/37/1 40/57/1 39/56/1
f 28/37/10 31/42/10 34/46/10 40/57/10
f 35/48/20 41/58/20 33/45/20 39/56/20
f 42/60/20 36/50/20 40/57/20 34/46/20
f 41/58/20 42/60/20 34/46/20 33/45/20
f 36/50/20 35/48/20 39/56/20 40/57/20
f 36/51/16 42/59/16 43/61/16 37/53/16
f 42/60/1 41/58/1 44/63/1 43/62/1
f 41/58/10 35/48/10 38/55/10 44/63/10
f 45/64/16 46/65/16 47/66/16 48/67/16
f 49/68/16 50/69/16 51/70/16 52/71/16
f 53/72/16 54/73/16 55/74/16 56/75/16
f 57/76/16 58/77/16 59/78/16 60/79/16
