# Blender 3.1.0
# www.blender.org
v -0.266780 2.658604 -2.787899
v 0.266783 2.658604 -2.787899
v 0.000001 3.796414 -3.027422
v 0.000001 3.796414 -3.027422
v 0.266783 2.658604 -3.266947
v -0.266780 2.658604 -3.266947
v 0.000001 3.796414 -3.027422
v 0.000001 3.796414 -3.027422
vn -0.0000 0.2060 0.9786
vn -0.0000 0.2060 -0.9786
vn -0.9736 0.2283 -0.0000
vn 0.9736 0.2283 -0.0000
vt 0.299266 0.224393
vt 0.299266 0.224393
vt 0.299266 0.224393
vt 0.299266 0.224393
vt 0.299266 0.224393
vt 0.299266 0.224393
vt 0.299266 0.224393
vt 0.299266 0.224393
s 0
f 1/1/1 2/2/1 3/3/1 4/4/1
f 5/5/2 6/6/2 7/7/2 8/8/2
f 6/6/3 1/1/3 4/4/3 7/7/3
f 2/2/4 5/5/4 8/8/4 3/3/4
