# Blender 3.1.0
# www.blender.org
v 2.787899 2.658604 -0.266780
v 2.787899 2.658604 0.266783
v 3.266947 2.658604 -0.266780
v 3.266947 2.658604 0.266783
v 0.266780 2.658604 2.787899
v -0.266782 2.658604 2.787899
v 0.266780 2.658604 3.266947
v -0.266782 2.658604 3.266947
v -2.787899 2.658604 0.266781
v -2.787899 2.658604 -0.266782
v -3.266947 2.658604 0.266781
v -3.266947 2.658604 -0.266782
v -0.266780 2.658604 -2.787899
v 0.266783 2.658604 -2.787899
v -0.266780 2.658604 -3.266947
v 0.266783 2.658604 -3.266947
v 3.027423 3.796414 0.000001
v 3.027423 3.796414 0.000001
v 3.027423 3.796414 0.000001
v 3.027423 3.796414 0.000001
v -0.000001 3.796414 3.027423
v -0.000001 3.796414 3.027423
v -0.000001 3.796414 3.027423
v -0.000001 3.796414 3.027423
v -3.027423 3.796414 -0.000001
v -3.027423 3.796414 -0.000001
v -3.027423 3.796414 -0.000001
v -3.027423 3.796414 -0.000001
v 0.000001 3.796414 -3.027423
v 0.000001 3.796414 -3.027423
v 0.000001 3.796414 -3.027423
v 0.000001 3.796414 -3.027423
vn -0.0000 0.2060 0.9786
vn -0.9786 0.2060 -0.0000
vn -0.0000 0.2283 0.9736
vn -0.0000 0.2283 -0.9736
vn 0.9786 0.2060 -0.0000
vn -0.0000 0.2060 -0.9786
vn -0.9736 0.2283 -0.0000
vn 0.9736 0.2283 -0.0000
vt 0.299266 0.224393
vt 0.299266 0.224393
vt 0.299266 0.224393
vt 0.299266 0.224393
vt 0.299266 0.224393
vt 0.299266 0.224393
vt 0.299266 0.224393
vt 0.299266 0.224393
vt 0.299266 0.224393
vt 0.299266 0.224393
vt 0.299266 0.224393
vt 0.299266 0.224393
vt 0.299266 0.224393
vt 0.299266 0.224393
vt 0.299266 0.224393
vt 0.299266 0.224393
vt 0.299266 0.224393
vt 0.299266 0.224393
vt 0.299266 0.224393
vt 0.299266 0.224393
vt 0.299266 0.224393
vt 0.299266 0.224393
vt 0.299266 0.224393
vt 0.299266 0.224393
vt 0.299266 0.224393
vt 0.299266 0.224393
vt 0.299266 0.224393
vt 0.299266 0.224393
vt 0.299266 0.224393
vt 0.299266 0.224393
vt 0.299266 0.224393
vt 0.299266 0.224393
s 0
f 13/13/1 14/14/1 30/30/1 29/29/1
f 1/1/2 2/2/2 18/18/2 17/17/2
f 11/11/3 9/9/3 25/25/3 27/27/3
f 12/12/2 11/11/2 27/27/2 28/28/2
f 10/10/4 12/12/4 28/28/4 26/26/4
f 4/4/5 3/3/5 19/19/5 20/20/5
f 16/16/6 15/15/6 31/31/6 32/32/6
f 3/3/4 1/1/4 17/17/4 19/19/4
f 15/15/7 13/13/7 29/29/7 31/31/7
f 5/5/6 6/6/6 22/22/6 21/21/6
f 2/2/3 4/4/3 20/20/3 18/18/3
f 14/14/8 16/16/8 32/32/8 30/30/8
f 8/8/1 7/7/1 23/23/1 24/24/1
f 7/7/8 5/5/8 21/21/8 23/23/8
f 9/9/5 10/10/5 26/26/5 25/25/5
f 6/6/7 8/8/7 24/24/7 22/22/7
