# Blender 3.1.0
# www.blender.org
v 2.000000 -0.123008 -0.229845
v 2.000000 0.261694 -0.229844
v 2.000000 0.261694 0.229845
v 2.000000 -0.123008 0.229844
v 2.493279 0.337055 -0.229845
v 2.493279 0.721757 -0.229844
v 2.493279 0.721757 0.229845
v 2.493279 0.337055 0.229844
v 2.679562 0.221402 -0.368042
v 2.679562 0.837411 -0.368040
v 2.679562 0.837410 0.368042
v 2.679562 0.221401 0.368041
v 3.375284 0.221402 -0.368042
v 3.375284 0.837411 -0.368040
v 3.375284 0.837410 0.368042
v 3.375284 0.221401 0.368041
v 2.797327 1.132673 -0.243443
v 2.797327 1.132673 0.243445
v 3.257519 1.132673 -0.243443
v 3.257519 1.132673 0.243445
v 2.797327 2.187539 -0.243443
v 2.797327 2.187539 0.243445
v 3.257519 2.187539 -0.243443
v 3.257519 2.187539 0.243445
v 2.557573 2.387074 -0.497106
v 2.557573 2.387074 0.497108
v 3.497272 2.387074 -0.497106
v 3.497272 2.387074 0.497108
v 2.557573 2.539665 -0.497106
v 2.557573 2.539665 0.497108
v 3.497272 2.539665 -0.497106
v 3.497272 2.539665 0.497108
v 2.787899 2.911698 -0.266780
v 2.787899 2.911698 0.266783
v 3.266947 2.911698 -0.266780
v 3.266947 2.911698 0.266783
v 2.557573 2.911698 -0.497106
v 2.557573 2.911698 0.497108
v 3.497272 2.911698 -0.497106
v 3.497272 2.911698 0.497108
v 2.787899 2.658604 -0.266780
v 2.787899 2.658604 0.266783
v 3.266947 2.658604 -0.266780
v 3.266947 2.658604 0.266783
v 0.229845 -0.123008 2.000000
v 0.229844 0.261694 2.000000
v -0.229845 0.261694 2.000000
v -0.229844 -0.123008 2.000000
v 0.229845 0.337055 2.493279
v 0.229844 0.721757 2.493279
v -0.229845 0.721757 2.493279
v -0.229844 0.337055 2.493279
v 0.368042 0.221402 2.679562
v 0.368041 0.837411 2.679562
v -0.368042 0.837410 2.679562
v -0.368040 0.221401 2.679562
v 0.368042 0.221402 3.375284
v 0.368041 0.837411 3.375284
v -0.368042 0.837410 3.375284
v -0.368040 0.221401 3.375284
v 0.243444 1.132673 2.797327
v -0.243445 1.132673 2.797327
v 0.243444 1.132673 3.257519
v -0.243445 1.132673 3.257519
v 0.243443 2.187539 2.797327
v -0.243445 2.187539 2.797327
v 0.243443 2.187539 3.257519
v -0.243445 2.187539 3.257519
v 0.497106 2.387074 2.557573
v -0.497108 2.387074 2.557573
v 0.497106 2.387074 3.497272
v -0.497108 2.387074 3.497272
v 0.497106 2.539665 2.557573
v -0.497108 2.539665 2.557573
v 0.497106 2.539665 3.497272
v -0.497108 2.539665 3.497272
v 0.266780 2.911698 2.787899
v -0.266782 2.911698 2.787899
v 0.266780 2.911698 3.266947
v -0.266782 2.911698 3.266947
v 0.497106 2.911698 2.557573
v -0.497108 2.911698 2.557573
v 0.497106 2.911698 3.497272
v -0.497108 2.911698 3.497272
v 0.266780 2.658604 2.787899
v -0.266782 2.658604 2.787899
v 0.266780 2.658604 3.266947
v -0.266782 2.658604 3.266947
v -2.000000 -0.123008 0.229845
v -2.000000 0.261694 0.229844
v -2.000000 0.261694 -0.229844
v -2.000000 -0.123008 -0.229844
v -2.493279 0.337055 0.229845
v -2.493279 0.721757 0.229844
v -2.493279 0.721757 -0.229844
v -2.493279 0.337055 -0.229843
v -2.679562 0.221402 0.368042
v -2.679562 0.837411 0.368041
v -2.679562 0.837410 -0.368042
v -2.679562 0.221401 -0.368040
v -3.375284 0.221402 0.368042
v -3.375284 0.837411 0.368041
v -3.375284 0.837410 -0.368041
v -3.375284 0.221401 -0.368040
v -2.797327 1.132673 0.243444
v -2.797327 1.132673 -0.243445
v -3.257519 1.132673 0.243444
v -3.257519 1.132673 -0.243445
v -2.797327 2.187539 0.243444
v -2.797327 2.187539 -0.243445
v -3.257519 2.187539 0.243444
v -3.257519 2.187539 -0.243445
v -2.557573 2.387075 0.497106
v -2.557573 2.387074 -0.497108
v -3.497272 2.387075 0.497106
v -3.497272 2.387074 -0.497107
v -2.557573 2.539665 0.497106
v -2.557573 2.539665 -0.497108
v -3.497272 2.539665 0.497106
v -3.497272 2.539665 -0.497107
v -2.787899 2.911698 0.266780
v -2.787899 2.911698 -0.266782
v -3.266947 2.911698 0.266781
v -3.266947 2.911698 -0.266782
v -2.557573 2.911698 0.497106
v -2.557573 2.911698 -0.497108
v -3.497272 2.911698 0.497106
v -3.497272 2.911698 -0.497108
v -2.787899 2.658604 0.266781
v -2.787899 2.658604 -0.266782
v -3.266947 2.658604 0.266781
v -3.266947 2.658604 -0.266782
v -0.229845 -0.123008 -2.000000
v -0.229844 0.261694 -2.000000
v 0.229845 0.261694 -2.000000
v 0.229844 -0.123008 -2.000000
v -0.229845 0.337055 -2.493279
v -0.229844 0.721757 -2.493279
v 0.229845 0.721757 -2.493279
v 0.229844 0.337055 -2.493279
v -0.368042 0.221402 -2.679562
v -0.368040 0.837411 -2.679562
v 0.368042 0.837410 -2.679562
v 0.368041 0.221401 -2.679562
v -0.368042 0.221402 -3.375284
v -0.368040 0.837411 -3.375284
v 0.368042 0.837410 -3.375284
v 0.368041 0.221401 -3.375284
v -0.243443 1.132673 -2.797327
v 0.243445 1.132673 -2.797327
v -0.243443 1.132673 -3.257519
v 0.243445 1.132673 -3.257519
v -0.243443 2.187539 -2.797327
v 0.243445 2.187539 -2.797327
v -0.243443 2.187539 -3.257519
v 0.243445 2.187539 -3.257519
v -0.497106 2.387074 -2.557573
v 0.497108 2.387074 -2.557573
v -0.497106 2.387074 -3.497272
v 0.497108 2.387074 -3.497272
v -0.497106 2.539665 -2.557573
v 0.497108 2.539665 -2.557573
v -0.497106 2.539665 -3.497272
v 0.497108 2.539665 -3.497272
v -0.266780 2.911698 -2.787899
v 0.266783 2.911698 -2.787899
v -0.266780 2.911698 -3.266947
v 0.266783 2.911698 -3.266947
v -0.497106 2.911698 -2.557573
v 0.497108 2.911698 -2.557573
v -0.497106 2.911698 -3.497272
v 0.497108 2.911698 -3.497272
v -0.266780 2.658604 -2.787899
v 0.266783 2.658604 -2.787899
v -0.266780 2.658604 -3.266947
v 0.266783 2.658604 -3.266947
v 3.027423 3.796414 0.000001
v 3.027423 3.796414 0.000001
v 3.027423 3.796414 0.000001
v 3.027423 3.796414 0.000001
v -0.000001 3.796414 3.027423
v -0.000001 3.796414 3.027423
v -0.000001 3.796414 3.027423
v -0.000001 3.796414 3.027423
v -3.027423 3.796414 -0.000001
v -3.027423 3.796414 -0.000001
v -3.027423 3.796414 -0.000001
v -3.027423 3.796414 -0.000001
v 0.000001 3.796414 -3.027423
v 0.000001 3.796414 -3.027423
v 0.000001 3.796414 -3.027423
v 0.000001 3.796414 -3.027423
vn -0.0000 -0.0000 1.0000
vn -0.5275 -0.8496 -0.0000
vn -0.6821 0.7313 -0.0000
vn 0.6821 -0.7313 -0.0000
vn -0.0000 -0.0000 -1.0000
vn -0.0000 -1.0000 -0.0000
vn -0.5958 -0.0000 -0.8031
vn -0.5958 -0.0000 0.8031
vn -0.5275 0.8496 -0.0000
vn 1.0000 -0.0000 -0.0000
vn 0.9288 0.3705 -0.0000
vn -0.0000 0.3888 -0.9213
vn -0.9288 0.3705 -0.0000
vn -0.0000 0.3888 0.9213
vn -0.6397 -0.7686 -0.0000
vn -1.0000 -0.0000 -0.0000
vn -0.0000 -0.7860 0.6183
vn 0.6397 -0.7686 -0.0000
vn -0.0000 -0.7860 -0.6183
vn -0.0000 1.0000 -0.0000
vn -0.0000 -0.8496 -0.5275
vn -0.0000 0.7313 -0.6821
vn -0.0000 -0.7313 0.6821
vn 0.8031 -0.0000 -0.5958
vn -0.8031 -0.0000 -0.5958
vn -0.0000 0.8496 -0.5275
vn -0.0000 0.3705 0.9288
vn 0.9213 0.3888 -0.0000
vn -0.0000 0.3705 -0.9288
vn -0.9213 0.3888 -0.0000
vn -0.0000 -0.7686 -0.6397
vn -0.6183 -0.7860 -0.0000
vn -0.0000 -0.7686 0.6397
vn 0.6183 -0.7860 -0.0000
vn 0.5275 -0.8496 -0.0000
vn 0.6821 0.7313 -0.0000
vn -0.6821 -0.7313 -0.0000
vn 0.5958 -0.0000 0.8031
vn 0.5958 -0.0000 -0.8031
vn 0.5275 0.8496 -0.0000
vn -0.0000 -0.8496 0.5275
vn -0.0000 0.7313 0.6821
vn -0.0000 -0.7313 -0.6821
vn -0.8031 -0.0000 0.5958
vn 0.8031 -0.0000 0.5958
vn -0.0000 0.8496 0.5275
vt 0.909541 0.463089
vt 0.909540 0.463089
vt 0.909540 0.463089
vt 0.909540 0.463089
vt 0.909541 0.463089
vt 0.902158 0.480314
vt 0.909540 0.463089
vt 0.902158 0.480314
vt 0.909540 0.463089
vt 0.902158 0.480314
vt 0.909540 0.463089
vt 0.902158 0.480314
vt 0.902158 0.480314
vt 0.902158 0.480314
vt 0.902158 0.480314
vt 0.902158 0.480314
vt 0.902158 0.480314
vt 0.902158 0.480314
vt 0.902158 0.480314
vt 0.902158 0.480314
vt 0.902158 0.480314
vt 0.902158 0.480314
vt 0.902158 0.480314
vt 0.902158 0.480314
vt 0.902158 0.480314
vt 0.980903 0.714089
vt 0.902158 0.480314
vt 0.980903 0.714089
vt 0.902158 0.480314
vt 0.980903 0.714089
vt 0.902158 0.480314
vt 0.980903 0.714089
vt 0.980903 0.714089
vt 0.980903 0.714089
vt 0.980903 0.714089
vt 0.980903 0.714089
vt 0.980903 0.714089
vt 0.968599 0.468010
vt 0.980903 0.714089
vt 0.968599 0.468010
vt 0.980903 0.714089
vt 0.968599 0.468010
vt 0.980903 0.714089
vt 0.968599 0.468010
vt 0.968599 0.468010
vt 0.902158 0.480314
vt 0.968599 0.468010
vt 0.980903 0.714089
vt 0.968599 0.468010
vt 0.902158 0.480314
vt 0.968599 0.468010
vt 0.980903 0.714089
vt 0.968599 0.468010
vt 0.968599 0.468010
vt 0.968599 0.468010
vt 0.968599 0.468010
vt 0.968599 0.468010
vt 0.902158 0.480314
vt 0.968599 0.468010
vt 0.980903 0.714089
vt 0.968599 0.468010
vt 0.902158 0.480314
vt 0.980903 0.714089
vt 0.909541 0.463089
vt 0.909540 0.463089
vt 0.909540 0.463089
vt 0.909540 0.463089
vt 0.909541 0.463089
vt 0.902158 0.480314
vt 0.909540 0.463089
vt 0.902158 0.480314
vt 0.909540 0.463089
vt 0.902158 0.480314
vt 0.909540 0.463089
vt 0.902158 0.480314
vt 0.902158 0.480314
vt 0.902158 0.480314
vt 0.902158 0.480314
vt 0.902158 0.480314
vt 0.902158 0.480314
vt 0.902158 0.480314
vt 0.902158 0.480314
vt 0.902158 0.480314
vt 0.902158 0.480314
vt 0.902158 0.480314
vt 0.902158 0.480314
vt 0.902158 0.480314
vt 0.902158 0.480314
vt 0.980903 0.714089
vt 0.902158 0.480314
vt 0.980903 0.714089
vt 0.902158 0.480314
vt 0.980903 0.714089
vt 0.902158 0.480314
vt 0.980903 0.714089
vt 0.980903 0.714089
vt 0.980903 0.714089
vt 0.980903 0.714089
vt 0.980903 0.714089
vt 0.980903 0.714089
vt 0.968599 0.468010
vt 0.980903 0.714089
vt 0.968599 0.468010
vt 0.980903 0.714089
vt 0.968599 0.468010
vt 0.980903 0.714089
vt 0.968599 0.468010
vt 0.968599 0.468010
vt 0.902158 0.480314
vt 0.968599 0.468010
vt 0.980903 0.714089
vt 0.968599 0.468010
vt 0.902158 0.480314
vt 0.968599 0.468010
vt 0.980903 0.714089
vt 0.968599 0.468010
vt 0.968599 0.468010
vt 0.968599 0.468010
vt 0.968599 0.468010
vt 0.968599 0.468010
vt 0.902158 0.480314
vt 0.968599 0.468010
vt 0.980903 0.714089
vt 0.968599 0.468010
vt 0.902158 0.480314
vt 0.980903 0.714089
vt 0.909541 0.463089
vt 0.909540 0.463089
vt 0.909540 0.463089
vt 0.909540 0.463089
vt 0.909541 0.463089
vt 0.902158 0.480314
vt 0.909540 0.463089
vt 0.902158 0.480314
vt 0.909540 0.463089
vt 0.902158 0.480314
vt 0.909540 0.463089
vt 0.902158 0.480314
vt 0.902158 0.480314
vt 0.902158 0.480314
vt 0.902158 0.480314
vt 0.902158 0.480314
vt 0.902158 0.480314
vt 0.902158 0.480314
vt 0.902158 0.480314
vt 0.902158 0.480314
vt 0.902158 0.480314
vt 0.902158 0.480314
vt 0.902158 0.480314
vt 0.902158 0.480314
vt 0.902158 0.480314
vt 0.980903 0.714089
vt 0.902158 0.480314
vt 0.980903 0.714089
vt 0.902158 0.480314
vt 0.980903 0.714089
vt 0.902158 0.480314
vt 0.980903 0.714089
vt 0.980903 0.714089
vt 0.980903 0.714089
vt 0.980903 0.714089
vt 0.980903 0.714089
vt 0.980903 0.714089
vt 0.968599 0.468010
vt 0.980903 0.714089
vt 0.968599 0.468010
vt 0.980903 0.714089
vt 0.968599 0.468010
vt 0.980903 0.714089
vt 0.968599 0.468010
vt 0.968599 0.468010
vt 0.902158 0.480314
vt 0.968599 0.468010
vt 0.980903 0.714089
vt 0.968599 0.468010
vt 0.902158 0.480314
vt 0.968599 0.468010
vt 0.980903 0.714089
vt 0.968599 0.468010
vt 0.968599 0.468010
vt 0.968599 0.468010
vt 0.968599 0.468010
vt 0.968599 0.468010
vt 0.902158 0.480314
vt 0.968599 0.468010
vt 0.980903 0.714089
vt 0.968599 0.468010
vt 0.902158 0.480314
vt 0.980903 0.714089
vt 0.909541 0.463089
vt 0.909540 0.463089
vt 0.909540 0.463089
vt 0.909540 0.463089
vt 0.909541 0.463089
vt 0.902158 0.480314
vt 0.909540 0.463089
vt 0.902158 0.480314
vt 0.909540 0.463089
vt 0.902158 0.480314
vt 0.909540 0.463089
vt 0.902158 0.480314
vt 0.902158 0.480314
vt 0.902158 0.480314
vt 0.902158 0.480314
vt 0.902158 0.480314
vt 0.902158 0.480314
vt 0.902158 0.480314
vt 0.902158 0.480314
vt 0.902158 0.480314
vt 0.902158 0.480314
vt 0.902158 0.480314
vt 0.902158 0.480314
vt 0.902158 0.480314
vt 0.902158 0.480314
vt 0.980903 0.714089
vt 0.902158 0.480314
vt 0.980903 0.714089
vt 0.902158 0.480314
vt 0.980903 0.714089
vt 0.902158 0.480314
vt 0.980903 0.714089
vt 0.980903 0.714089
vt 0.980903 0.714089
vt 0.980903 0.714089
vt 0.980903 0.714089
vt 0.980903 0.714089
vt 0.968599 0.468010
vt 0.980903 0.714089
vt 0.968599 0.468010
vt 0.980903 0.714089
vt 0.968599 0.468010
vt 0.980903 0.714089
vt 0.968599 0.468010
vt 0.968599 0.468010
vt 0.902158 0.480314
vt 0.968599 0.468010
vt 0.980903 0.714089
vt 0.968599 0.468010
vt 0.902158 0.480314
vt 0.968599 0.468010
vt 0.980903 0.714089
vt 0.968599 0.468010
vt 0.968599 0.468010
vt 0.968599 0.468010
vt 0.968599 0.468010
vt 0.968599 0.468010
vt 0.902158 0.480314
vt 0.968599 0.468010
vt 0.980903 0.714089
vt 0.968599 0.468010
vt 0.902158 0.480314
vt 0.980903 0.714089
vt 0.968599 0.468010
vt 0.968599 0.468010
vt 0.968599 0.468010
vt 0.968599 0.468010
vt 0.968599 0.468010
vt 0.968599 0.468010
vt 0.968599 0.468010
vt 0.968599 0.468010
vt 0.968599 0.468010
vt 0.968599 0.468010
vt 0.968599 0.468010
vt 0.968599 0.468010
vt 0.968599 0.468010
vt 0.968599 0.468010
vt 0.968599 0.468010
vt 0.968599 0.468010
s 0
f 3/3/1 4/4/1 8/11/1 7/9/1
f 8/12/2 5/6/2 9/13/2 12/16/2
f 2/2/3 3/3/3 7/9/3 6/7/3
f 4/4/4 1/1/4 5/5/4 8/11/4
f 1/1/5 2/2/5 6/7/5 5/5/5
f 12/16/6 9/13/6 13/17/6 16/20/6
f 5/6/7 6/8/7 10/14/7 9/13/7
f 7/10/8 8/12/8 12/16/8 11/15/8
f 6/8/9 7/10/9 11/15/9 10/14/9
f 13/17/10 14/18/10 15/19/10 16/20/10
f 9/13/5 10/14/5 14/18/5 13/17/5
f 11/15/1 12/16/1 16/20/1 15/19/1
f 15/19/11 14/18/11 19/23/11 20/24/11
f 19/23/5 17/21/5 21/25/5 23/29/5
f 14/18/12 10/14/12 17/21/12 19/23/12
f 10/14/13 11/15/13 18/22/13 17/21/13
f 11/15/14 15/19/14 20/24/14 18/22/14
f 21/26/15 22/28/15 26/34/15 25/33/15
f 17/21/16 18/22/16 22/27/16 21/25/16
f 18/22/1 20/24/1 24/31/1 22/27/1
f 20/24/10 19/23/10 23/29/10 24/31/10
f 26/34/1 28/36/1 32/43/1 30/39/1
f 22/28/17 24/32/17 28/36/17 26/34/17
f 24/32/18 23/30/18 27/35/18 28/36/18
f 23/30/19 21/26/19 25/33/19 27/35/19
f 31/42/5 29/38/5 37/53/5 39/55/5
f 28/36/10 27/35/10 31/41/10 32/43/10
f 27/35/5 25/33/5 29/37/5 31/41/5
f 25/33/16 26/34/16 30/39/16 29/37/16
f 34/46/5 36/50/5 44/62/5 42/58/5
f 29/38/16 30/40/16 38/54/16 37/53/16
f 30/40/1 32/44/1 40/56/1 38/54/1
f 32/44/10 31/42/10 39/55/10 40/56/10
f 34/47/20 33/45/20 37/53/20 38/54/20
f 35/49/20 36/51/20 40/56/20 39/55/20
f 33/45/20 35/49/20 39/55/20 37/53/20
f 36/51/20 34/47/20 38/54/20 40/56/20
f 36/52/16 35/48/16 43/60/16 44/63/16
f 35/49/1 33/45/1 41/57/1 43/61/1
f 33/45/10 34/47/10 42/59/10 41/57/10
f 47/66/16 48/67/16 52/74/16 51/72/16
f 52/75/21 49/69/21 53/76/21 56/79/21
f 46/65/22 47/66/22 51/72/22 50/70/22
f 48/67/23 45/64/23 49/68/23 52/74/23
f 45/64/10 46/65/10 50/70/10 49/68/10
f 56/79/6 53/76/6 57/80/6 60/83/6
f 49/69/24 50/71/24 54/77/24 53/76/24
f 51/73/25 52/75/25 56/79/25 55/78/25
f 50/71/26 51/73/26 55/78/26 54/77/26
f 57/80/1 58/81/1 59/82/1 60/83/1
f 53/76/10 54/77/10 58/81/10 57/80/10
f 55/78/16 56/79/16 60/83/16 59/82/16
f 59/82/27 58/81/27 63/86/27 64/87/27
f 63/86/10 61/84/10 65/88/10 67/92/10
f 58/81/28 54/77/28 61/84/28 63/86/28
f 54/77/29 55/78/29 62/85/29 61/84/29
f 55/78/30 59/82/30 64/87/30 62/85/30
f 65/89/31 66/91/31 70/97/31 69/96/31
f 61/84/5 62/85/5 66/90/5 65/88/5
f 62/85/16 64/87/16 68/94/16 66/90/16
f 64/87/1 63/86/1 67/92/1 68/94/1
f 70/97/16 72/99/16 76/106/16 74/102/16
f 66/91/32 68/95/32 72/99/32 70/97/32
f 68/95/33 67/93/33 71/98/33 72/99/33
f 67/93/34 65/89/34 69/96/34 71/98/34
f 75/105/10 73/101/10 81/116/10 83/118/10
f 72/99/1 71/98/1 75/104/1 76/106/1
f 71/98/10 69/96/10 73/100/10 75/104/10
f 69/96/5 70/97/5 74/102/5 73/100/5
f 78/109/10 80/113/10 88/125/10 86/121/10
f 73/101/5 74/103/5 82/117/5 81/116/5
f 74/103/16 76/107/16 84/119/16 82/117/16
f 76/107/1 75/105/1 83/118/1 84/119/1
f 78/110/20 77/108/20 81/116/20 82/117/20
f 79/112/20 80/114/20 84/119/20 83/118/20
f 77/108/20 79/112/20 83/118/20 81/116/20
f 80/114/20 78/110/20 82/117/20 84/119/20
f 80/115/5 79/111/5 87/123/5 88/126/5
f 79/112/16 77/108/16 85/120/16 87/124/16
f 77/108/1 78/110/1 86/122/1 85/120/1
f 91/129/5 92/130/5 96/137/5 95/135/5
f 96/138/35 93/132/35 97/139/35 100/142/35
f 90/128/36 91/129/36 95/135/36 94/133/36
f 92/130/37 89/127/37 93/131/37 96/137/37
f 89/127/1 90/128/1 94/133/1 93/131/1
f 100/142/6 97/139/6 101/143/6 104/146/6
f 93/132/38 94/134/38 98/140/38 97/139/38
f 95/136/39 96/138/39 100/142/39 99/141/39
f 94/134/40 95/136/40 99/141/40 98/140/40
f 101/143/16 102/144/16 103/145/16 104/146/16
f 97/139/1 98/140/1 102/144/1 101/143/1
f 99/141/5 100/142/5 104/146/5 103/145/5
f 103/145/13 102/144/13 107/149/13 108/150/13
f 107/149/1 105/147/1 109/151/1 111/155/1
f 102/144/14 98/140/14 105/147/14 107/149/14
f 98/140/11 99/141/11 106/148/11 105/147/11
f 99/141/12 103/145/12 108/150/12 106/148/12
f 109/152/18 110/154/18 114/160/18 113/159/18
f 105/147/10 106/148/10 110/153/10 109/151/10
f 106/148/5 108/150/5 112/157/5 110/153/5
f 108/150/16 107/149/16 111/155/16 112/157/16
f 114/160/5 116/162/5 120/169/5 118/165/5
f 110/154/19 112/158/19 116/162/19 114/160/19
f 112/158/15 111/156/15 115/161/15 116/162/15
f 111/156/17 109/152/17 113/159/17 115/161/17
f 119/168/1 117/164/1 125/179/1 127/181/1
f 116/162/16 115/161/16 119/167/16 120/169/16
f 115/161/1 113/159/1 117/163/1 119/167/1
f 113/159/10 114/160/10 118/165/10 117/163/10
f 122/172/1 124/176/1 132/188/1 130/184/1
f 117/164/10 118/166/10 126/180/10 125/179/10
f 118/166/5 120/170/5 128/182/5 126/180/5
f 120/170/16 119/168/16 127/181/16 128/182/16
f 122/173/20 121/171/20 125/179/20 126/180/20
f 123/175/20 124/177/20 128/182/20 127/181/20
f 121/171/20 123/175/20 127/181/20 125/179/20
f 124/177/20 122/173/20 126/180/20 128/182/20
f 124/178/10 123/174/10 131/186/10 132/189/10
f 123/175/5 121/171/5 129/183/5 131/187/5
f 121/171/16 122/173/16 130/185/16 129/183/16
f 135/192/10 136/193/10 140/200/10 139/198/10
f 140/201/41 137/195/41 141/202/41 144/205/41
f 134/191/42 135/192/42 139/198/42 138/196/42
f 136/193/43 133/190/43 137/194/43 140/200/43
f 133/190/16 134/191/16 138/196/16 137/194/16
f 144/205/6 141/202/6 145/206/6 148/209/6
f 137/195/44 138/197/44 142/203/44 141/202/44
f 139/199/45 140/201/45 144/205/45 143/204/45
f 138/197/46 139/199/46 143/204/46 142/203/46
f 145/206/5 146/207/5 147/208/5 148/209/5
f 141/202/16 142/203/16 146/207/16 145/206/16
f 143/204/10 144/205/10 148/209/10 147/208/10
f 147/208/29 146/207/29 151/212/29 152/213/29
f 151/212/16 149/210/16 153/214/16 155/218/16
f 146/207/30 142/203/30 149/210/30 151/212/30
f 142/203/27 143/204/27 150/211/27 149/210/27
f 143/204/28 147/208/28 152/213/28 150/211/28
f 153/215/33 154/217/33 158/223/33 157/222/33
f 149/210/1 150/211/1 154/216/1 153/214/1
f 150/211/10 152/213/10 156/220/10 154/216/10
f 152/213/5 151/212/5 155/218/5 156/220/5
f 158/223/10 160/225/10 164/232/10 162/228/10
f 154/217/34 156/221/34 160/225/34 158/223/34
f 156/221/31 155/219/31 159/224/31 160/225/31
f 155/219/32 153/215/32 157/222/32 159/224/32
f 163/231/16 161/227/16 169/242/16 171/244/16
f 160/225/5 159/224/5 163/230/5 164/232/5
f 159/224/16 157/222/16 161/226/16 163/230/16
f 157/222/1 158/223/1 162/228/1 161/226/1
f 166/235/16 168/239/16 176/251/16 174/247/16
f 161/227/1 162/229/1 170/243/1 169/242/1
f 162/229/10 164/233/10 172/245/10 170/243/10
f 164/233/5 163/231/5 171/244/5 172/245/5
f 166/236/20 165/234/20 169/242/20 170/243/20
f 167/238/20 168/240/20 172/245/20 171/244/20
f 165/234/20 167/238/20 171/244/20 169/242/20
f 168/240/20 166/236/20 170/243/20 172/245/20
f 168/241/1 167/237/1 175/249/1 176/252/1
f 167/238/10 165/234/10 173/246/10 175/250/10
f 165/234/5 166/236/5 174/248/5 173/246/5
f 177/253/1 178/254/1 180/256/1 179/255/1
f 181/257/1 182/258/1 184/260/1 183/259/1
f 185/261/1 186/262/1 188/264/1 187/263/1
f 189/265/1 190/266/1 192/268/1 191/267/1
